# 3ds Max Wavefront OBJ Exporter v0.97b - (c)2007 guruware
# File Created: 24.03.2018 18:04:37

#
# object Box001
#

v  -51.9440 -22.4219 0.0000
v  -51.9440 10.0977 0.0000
v  2.4395 10.0977 0.0000
v  2.4395 -22.4219 0.0000
v  56.8230 10.0977 0.0000
v  56.8230 -22.4219 0.0000
v  -51.9440 42.6173 0.0000
v  2.4395 42.6173 0.0000
v  56.8230 42.6173 0.0000
v  -51.9440 -22.4219 53.6859
v  2.4395 -22.4219 53.6859
v  2.4395 10.0977 53.6859
v  -51.9440 10.0977 53.6859
v  2.4395 -22.4219 35.6730
v  56.8230 -22.4219 35.6730
v  56.8230 10.0977 35.6730
v  2.4395 10.0977 35.6730
v  -51.9440 10.0977 35.6730
v  2.4395 42.6173 35.6730
v  -51.9440 42.6173 35.6730
v  56.8230 42.6173 35.6730
v  2.4395 -22.4219 17.8365
v  -51.9440 -22.4219 17.8365
v  56.8230 -22.4219 17.8365
v  -51.9440 -22.4219 35.6730
v  56.8230 10.0977 17.8365
v  56.8230 42.6173 17.8365
v  2.4395 42.6173 17.8365
v  -51.9440 42.6173 17.8365
v  -51.9440 10.0977 17.8365
# 30 vertices

vn 0.0000 0.0000 -1.0000
vn 0.0000 0.0000 1.0000
vn 0.0000 -1.0000 0.0000
vn 1.0000 0.0000 0.0000
vn 0.0000 1.0000 0.0000
vn -1.0000 0.0000 0.0000
# 6 vertex normals

vt 0.0005 0.3386 0.0000
vt 0.0005 0.1696 0.0000
vt 0.2832 0.1696 0.0000
vt 0.2832 0.3386 0.0000
vt 0.5659 0.1696 0.0000
vt 0.5659 0.3386 0.0000
vt 0.0005 0.0005 0.0000
vt 0.2832 0.0005 0.0000
vt 0.5659 0.0005 0.0000
vt 0.3411 0.8188 0.0000
vt 0.6238 0.8188 0.0000
vt 0.6238 0.9878 0.0000
vt 0.3411 0.9878 0.0000
vt 0.6438 0.2880 0.0000
vt 0.6438 0.0052 0.0000
vt 0.8128 0.0052 0.0000
vt 0.8128 0.2880 0.0000
vt 0.8128 0.5707 0.0000
vt 0.9819 0.2880 0.0000
vt 0.9819 0.5707 0.0000
vt 0.9819 0.0052 0.0000
vt 0.0005 0.5303 0.0000
vt 0.2832 0.5303 0.0000
vt 0.2832 0.6230 0.0000
vt 0.0005 0.6230 0.0000
vt 0.5659 0.5303 0.0000
vt 0.5659 0.6230 0.0000
vt 0.2832 0.7157 0.0000
vt 0.0005 0.7157 0.0000
vt 0.5659 0.7157 0.0000
vt 0.0005 0.8140 0.0000
vt 0.1696 0.8140 0.0000
vt 0.1696 0.9068 0.0000
vt 0.0005 0.9068 0.0000
vt 0.3386 0.8140 0.0000
vt 0.3386 0.9068 0.0000
vt 0.1696 0.9995 0.0000
vt 0.0005 0.9995 0.0000
vt 0.3386 0.9995 0.0000
vt 0.0005 0.3411 0.0000
vt 0.2832 0.3411 0.0000
vt 0.2832 0.4338 0.0000
vt 0.0005 0.4338 0.0000
vt 0.5659 0.3411 0.0000
vt 0.5659 0.4338 0.0000
vt 0.2832 0.5265 0.0000
vt 0.0005 0.5265 0.0000
vt 0.5659 0.5265 0.0000
vt 0.9724 0.7573 0.0000
vt 0.8034 0.7573 0.0000
vt 0.8034 0.6646 0.0000
vt 0.9724 0.6646 0.0000
vt 0.6343 0.7573 0.0000
vt 0.6343 0.6646 0.0000
vt 0.8034 0.5719 0.0000
vt 0.9724 0.5719 0.0000
vt 0.6343 0.5719 0.0000
vt 0.2832 0.8093 0.0000
vt 0.0005 0.8093 0.0000
vt 0.7280 0.2890 0.0000
vt 0.7280 0.4581 0.0000
vt 0.6343 0.4581 0.0000
vt 0.6343 0.2890 0.0000
vt 0.9738 0.8557 0.0000
vt 0.6911 0.8557 0.0000
vt 0.6911 0.7620 0.0000
vt 0.9738 0.7620 0.0000
vt 0.6343 0.4782 0.0000
vt 0.8034 0.4782 0.0000
# 69 texture coords

o Box001
g Box001
f 1/1/1 2/2/1 3/3/1 
f 3/3/1 4/4/1 1/1/1 
f 4/4/1 3/3/1 5/5/1 
f 5/5/1 6/6/1 4/4/1 
f 2/2/1 7/7/1 8/8/1 
f 8/8/1 3/3/1 2/2/1 
f 3/3/1 8/8/1 9/9/1 
f 9/9/1 5/5/1 3/3/1 
f 10/10/2 11/11/2 12/12/2 
f 12/12/2 13/13/2 10/10/2 
f 14/14/2 15/15/2 16/16/2 
f 16/16/2 17/17/2 14/14/2 
f 18/18/2 17/17/2 19/19/2 
f 19/19/2 20/20/2 18/18/2 
f 17/17/2 16/16/2 21/21/2 
f 21/21/2 19/19/2 17/17/2 
f 1/22/3 4/23/3 22/24/3 
f 22/24/3 23/25/3 1/22/3 
f 4/23/3 6/26/3 24/27/3 
f 24/27/3 22/24/3 4/23/3 
f 23/25/3 22/24/3 14/28/3 
f 14/28/3 25/29/3 23/25/3 
f 22/24/3 24/27/3 15/30/3 
f 15/30/3 14/28/3 22/24/3 
f 6/31/4 5/32/4 26/33/4 
f 26/33/4 24/34/4 6/31/4 
f 5/32/4 9/35/4 27/36/4 
f 27/36/4 26/33/4 5/32/4 
f 24/34/4 26/33/4 16/37/4 
f 16/37/4 15/38/4 24/34/4 
f 26/33/4 27/36/4 21/39/4 
f 21/39/4 16/37/4 26/33/4 
f 9/40/5 8/41/5 28/42/5 
f 28/42/5 27/43/5 9/40/5 
f 8/41/5 7/44/5 29/45/5 
f 29/45/5 28/42/5 8/41/5 
f 27/43/5 28/42/5 19/46/5 
f 19/46/5 21/47/5 27/43/5 
f 28/42/5 29/45/5 20/48/5 
f 20/48/5 19/46/5 28/42/5 
f 7/49/6 2/50/6 30/51/6 
f 30/51/6 29/52/6 7/49/6 
f 2/50/6 1/53/6 23/54/6 
f 23/54/6 30/51/6 2/50/6 
f 29/52/6 30/51/6 18/55/6 
f 18/55/6 20/56/6 29/52/6 
f 30/51/6 23/54/6 25/57/6 
f 25/57/6 18/55/6 30/51/6 
f 25/29/3 14/28/3 11/58/3 
f 11/58/3 10/59/3 25/29/3 
f 14/60/4 17/61/4 12/62/4 
f 12/62/4 11/63/4 14/60/4 
f 17/64/5 18/65/5 13/66/5 
f 13/66/5 12/67/5 17/64/5 
f 18/55/6 25/57/6 10/68/6 
f 10/68/6 13/69/6 18/55/6 
# 56 faces

